<?xml version="1.0" encoding="utf-8"?>
<!-- Generator: Adobe Illustrator 19.0.0, SVG Export Plug-In . SVG Version: 6.00 Build 0)  -->
<svg version="1.1" id="Layer_1" xmlns="http://www.w3.org/2000/svg" xmlns:xlink="http://www.w3.org/1999/xlink" x="0px" y="0px"
	 viewBox="-260 383.1 89.6 27.9" style="enable-background:new -260 383.1 89.6 27.9;" xml:space="preserve">
<style type="text/css">
	.st0{fill:#FFFFFF;}
	.st1{enable-background:new    ;}
</style>
<g id="XMLID_13_">
	<path id="XMLID_14_" class="st0" d="M-236.6,398.7c-1.2,4.9-9.1,5.4-9.1,5.4l-0.1-10.8l3.5-0.3l0,0h0.2h0.3l0,0h0.1
		c0.1,0.3,0.4,0.5,0.8,0.5c0.5,0,0.9-0.4,0.9-0.9s-0.4-0.9-0.9-0.9c-0.4,0-0.7,0.2-0.8,0.5h-0.1l0,0l-0.4-0.1l0,0l-3.5-0.4v-0.6
		l0.1-0.9l0,0c1-0.5,1.7-1.5,1.7-2.7c0-1.6-1.3-3-3-3c-1.7,0-3,1.3-3,3c0,1.2,0.7,2.2,1.7,2.7l0,0l0.1,0.9v0.7l-3.8,0.4l0,0h-0.1
		c-0.2-0.3-0.5-0.5-0.8-0.5c-0.5,0-0.9,0.4-0.9,0.9s0.4,0.9,0.9,0.9c0.3,0,0.6-0.2,0.8-0.5h0.1l0,0l3.9,0.3l-0.1,10.8
		c0,0-7.9-0.5-9.1-5.4c-0.6,3.7,0.5,5.4,0.5,5.4s-0.3-1.2,0.4-1.4c1.8,1.9,2,1.9,5.3,3.2c3.1,1.1,4,3,4.2,3.3l0,0l0,0l0,0l0,0
		c0.1-0.3,1.1-2.2,4.2-3.3c3.3-1.2,3.5-1.3,5.3-3.2c0.7,0.3,0.3,1.4,0.3,1.4S-235.9,402.4-236.6,398.7z M-246.9,389.2
		c-0.9,0-1.6-0.7-1.6-1.6s0.7-1.6,1.6-1.6c0.9,0,1.6,0.7,1.6,1.6S-246,389.2-246.9,389.2z"/>
	<g class="st1">
		<path class="st0" d="M-213.8,404.1c0.2,0.5,0.5,0.9,0.8,1.2c0.3,0.3,0.5,0.4,0.7,0.4c0.2,0,0.5,0.1,1,0.1v0.6h-8.2v-0.6
			c0.2,0,0.4,0,0.5,0c0.1,0,0.2,0,0.4-0.1c0.2-0.1,0.3-0.1,0.3-0.2s0.1-0.3,0.1-0.5c0-0.2,0-0.4-0.1-0.7l-0.8-1.9
			c-0.2-0.4-0.2-0.8-0.2-1.2l0-0.1h-5.8l0,0.1c0.1,0.2,0,0.6-0.3,1.2l-0.8,2c-0.1,0.2-0.1,0.4-0.1,0.6c0,0.2,0,0.3,0.1,0.4
			c0,0.1,0.1,0.2,0.2,0.3c0.1,0.1,0.2,0.1,0.3,0.2c0.1,0,0.2,0.1,0.4,0.1c0.2,0,0.3,0,0.4,0h0.4v0.6h-6.6v-0.6c0.3,0,0.6,0,0.8,0
			c0.2,0,0.4-0.1,0.7-0.2c0.3-0.1,0.5-0.3,0.7-0.5c0.2-0.3,0.4-0.6,0.5-1l6.4-16h1.8L-213.8,404.1L-213.8,404.1z M-220,399.3
			L-220,399.3c-0.3-0.3-0.5-0.7-0.7-1.2l-1.7-4.5l-1.7,4.5c-0.2,0.5-0.3,0.9-0.5,1.1l0,0.1H-220z"/>
		<path class="st0" d="M-202.8,398.3c1.1-0.3,2-0.9,2.6-1.7s0.9-1.9,0.9-3.1c0-2.8-1.1-4.2-3.4-4.1c-0.5,0-1,0.1-1.5,0.2v0.1
			c0.2,0.2,0.4,0.6,0.4,1.1v13.3c0,0.3,0.1,0.6,0.1,0.9c0.1,0.2,0.2,0.4,0.3,0.6s0.3,0.2,0.5,0.3c0.2,0.1,0.4,0.1,0.6,0.1
			c0.2,0,0.4,0,0.7,0v0.6h-8.9v-0.6c0.3,0,0.6,0,0.7,0c0.2,0,0.3-0.1,0.6-0.1c0.2-0.1,0.4-0.2,0.5-0.3s0.2-0.3,0.3-0.6
			c0.1-0.2,0.2-0.5,0.2-0.9v-13.5c0-0.3-0.1-0.6-0.2-0.9c-0.1-0.2-0.2-0.4-0.3-0.6s-0.3-0.2-0.5-0.3c-0.2-0.1-0.4-0.1-0.6-0.1
			c-0.2,0-0.4,0-0.7,0V388h2.3c0.5,0,1.5,0,2.9-0.1c1.5-0.1,2.6-0.1,3.3-0.1c1,0,1.9,0.1,2.7,0.2c0.8,0.2,1.6,0.4,2.2,0.8
			c0.7,0.4,1.2,0.9,1.6,1.6s0.6,1.5,0.6,2.4c0,1.8-0.7,3.2-2,4.3c-1.3,1.1-3.3,1.7-5.9,1.8L-202.8,398.3L-202.8,398.3z"/>
		<path class="st0" d="M-172.5,388v0.6c-0.3,0-0.6,0-0.7,0s-0.3,0.1-0.6,0.1c-0.2,0.1-0.4,0.2-0.5,0.3c-0.1,0.1-0.2,0.3-0.3,0.6
			s-0.1,0.5-0.1,0.9v16.3h-0.6l-13.3-12.5v9.7c0,0.3,0.1,0.6,0.2,0.9s0.2,0.4,0.3,0.6s0.3,0.2,0.5,0.3c0.2,0.1,0.4,0.1,0.6,0.1
			s0.4,0,0.7,0v0.6h-6.8v-0.6c0.3,0,0.6,0,0.7,0c0.2,0,0.3-0.1,0.6-0.1c0.2-0.1,0.4-0.2,0.5-0.3s0.2-0.3,0.3-0.6
			c0.1-0.2,0.2-0.5,0.2-0.9v-13.5c0-0.3-0.1-0.6-0.2-0.9c-0.1-0.2-0.2-0.4-0.3-0.6s-0.3-0.2-0.5-0.3c-0.2-0.1-0.4-0.1-0.6-0.1
			c-0.2,0-0.4,0-0.7,0V388h4l12.6,11.9v-0.3c-0.2-0.3-0.3-0.7-0.3-1v-8c0-0.3-0.1-0.6-0.1-0.9c-0.1-0.2-0.2-0.4-0.3-0.6
			s-0.3-0.2-0.5-0.3c-0.2-0.1-0.4-0.1-0.6-0.1c-0.2,0-0.4,0-0.7,0V388L-172.5,388z"/>
	</g>
</g>
</svg>
