<?xml version="1.0" encoding="utf-8"?>
<!-- Generator: Adobe Illustrator 19.0.0, SVG Export Plug-In . SVG Version: 6.00 Build 0)  -->
<svg version="1.1" id="Layer_1" xmlns="http://www.w3.org/2000/svg" xmlns:xlink="http://www.w3.org/1999/xlink" x="0px" y="0px"
	 viewBox="1412 -4 4026 800" style="enable-background:new 1412 -4 4026 800;" xml:space="preserve">
<style type="text/css">
	.st0{fill:#5691A9;enable-background:new    ;}
	.st1{fill:#5691A9;}
	.st2{opacity:0.5;}
</style>
<path id="XMLID_27_" class="st0" d="M2085.9,453.3c-36.5,151-280.9,166.4-280.9,166.4l-2.1-334.2l107.6-8.7l0,0l5-0.4l8.8-0.7l0,0
	l3.5-0.3c4.6,8.3,13.4,14,23.5,14c14.9,0,27-12.1,27-27s-12.1-27-27-27c-11,0-20.5,6.6-24.7,16.1l-2.3-0.3l0,0l-13.6-1.6h-0.1
	l-107.1-12.4V217l1.8-28.2h-0.6c31.6-14.5,53.5-46.3,53.5-83.3c0-50.7-41.1-91.7-91.7-91.7c-50.6,0-91.7,41.1-91.7,91.7
	c0,37,22,68.8,53.5,83.3h-0.6l1.8,28.2v20.2L1611.1,251l0,0l-4.8,0.5c-4.2-9.5-13.6-16.1-24.7-16.1c-14.9,0-27,12.1-27,27
	s12.1,27,27,27c10.2,0,18.9-5.7,23.6-14l3.5,0.3l0,0l121.5,9.8l-2.1,334.2c0,0-244.3-15.4-280.8-166.4
	c-20.9,113.8,13.5,167.1,13.5,167.1s-10.5-35.8,11.9-43.5c56.2,57.6,61.8,60.4,165,98.3c95.4,35.1,124.8,93.4,128.7,102l0.1,1.2
	c0,0,0.1-0.3,0.2-0.5c0.1,0.2,0.2,0.5,0.2,0.5l0.1-1.2c3.9-8.6,33.2-67,128.7-102c103.2-37.9,108.8-40.7,165-98.3
	c22.5,7.7,11.9,43.5,11.9,43.5S2106.9,567.1,2085.9,453.3z M1766.7,156.7c-27.3,0-49.5-22.2-49.5-49.5s22.2-49.5,49.5-49.5
	c27.3,0,49.5,22.2,49.5,49.5S1794,156.7,1766.7,156.7z"/>
<g id="XMLID_9_">
	<path id="XMLID_10_" class="st1" d="M2791.1,619.2c7.1,16.7,15.1,29,23.4,36.9s15.9,12.7,22.2,13.9s16.7,2,30.6,2v18.7h-252.8V672
		c6.7,0,11.5,0,14.7-0.4c3.2-0.4,7.1-1.2,11.9-2.8s7.9-4,9.1-7.1c1.2-3.2,2-7.9,2-14.3s-1.2-13.9-4-22.6l-23.4-59.9
		c-4.8-13.5-7.1-26.2-6.7-38.5l-0.8-2.4h-181l-1.2,2.4c1.6,4.8-1.2,17.1-7.9,36.9l-23.4,61.5c-2,6.7-3.2,12.3-3.2,17.1
		s0.4,8.7,1.6,11.9s3.6,6,7.1,8.3c3.6,2.4,6.7,4,9.9,5.2s7.5,2,13.1,2.4c5.6,0.4,9.9,0.8,13.1,0.8h13.1v18.7h-204v-18.7
		c10.3,0,18.3-0.4,23.8-1.2s12.3-2.8,20.2-6c7.9-3.2,14.7-8.7,20.6-16.7s11.5-18.7,16.3-32.1l197.7-496.9h56.8l203.2,500.9
		L2791.1,619.2z M2599.8,469.6l-0.8-2.4c-7.1-7.5-13.5-18.7-19.4-33.3l-51.2-138.1l-53.6,138.1c-5.2,15.5-10.7,26.6-16.7,33.3
		l-0.8,2.4H2599.8z"/>
	<path id="XMLID_15_" class="st1" d="M3131.7,439.8c35.3-9.9,61.9-27.8,79.8-53.6c17.9-25.8,27-57.9,27-96
		c0-86.1-35.3-129-106.4-128.6c-16.7,0-32.5,1.6-47.2,4.8v2.4c7.5,7.5,11.5,19.1,11.5,34.1v412.4c0,10.7,1.6,19.8,4.4,27.4
		s6.4,13.1,10.3,17.1s9.5,6.7,16.7,8.7c7.1,2,13.1,3.2,17.9,3.6c4.8,0.4,12.3,0.4,22.2,0.4v18.7h-274.7v-18.7c9.9,0,17.5,0,22.2-0.4
		s10.7-1.6,17.9-3.6c7.2-2,12.7-4.8,16.3-8.7s7.1-9.9,10.3-17.5c3.2-7.5,4.8-16.7,4.8-27.4v-418c0-10.7-1.6-19.8-4.8-27.4
		c-3.2-7.5-6.4-13.1-9.9-17.1c-3.6-4-9.1-6.7-16.3-8.7c-7.1-2-13.1-3.2-17.9-3.6c-4.8-0.4-11.9-0.4-21.8-0.4v-19.1h70.6
		c15.1,0,45.2-0.8,90.9-2.8c45.6-2,79.8-2.8,102.4-2.8c30.6,0,58.3,2.4,83.7,7.5s48.4,13.5,69.5,25c21,11.5,37.7,27.8,49.6,48.8
		c11.9,21,17.9,46,17.9,75c0,54.8-20.6,99.6-62.3,134.2s-102.4,52.8-182.6,54.8v-21L3131.7,439.8z"/>
	<path id="XMLID_17_" class="st1" d="M4070.8,121.5v19.1c-9.9,0-17.1,0-21.8,0.4s-10.7,1.6-17.9,3.6c-7.1,2-12.7,4.8-16.7,8.7
		c-4,4-7.1,9.5-9.9,17.1c-2.8,7.5-4.4,16.7-4.4,27.4v504.1H3981l-413.6-387v300.8c0,10.7,1.6,19.8,4.8,27.4s6.7,13.1,10.3,17.1
		s9.1,6.7,16.3,8.7c7.1,2,13.1,3.2,17.9,3.6c4.8,0.4,12.3,0.4,22.2,0.4v18.7h-210.4v-18.7c9.9,0,17.5,0,22.2-0.4
		c4.8-0.4,10.7-1.6,17.9-3.6s12.7-4.8,16.3-8.7c3.6-4,7.1-9.9,10.3-17.5c3.2-7.5,4.8-16.7,4.8-27.4v-418c0-10.7-1.6-19.8-4.8-27.4
		c-3.2-7.5-6.3-13.1-9.9-17.1c-3.6-4-9.1-6.7-16.3-8.7c-7.1-2-13.1-3.2-17.9-3.6c-4.8-0.4-11.9-0.4-21.8-0.4V121h123.4l390.1,367.5
		v-10.7c-7.1-10.3-10.7-21-10.7-32.1V196.9c0-10.7-1.6-19.8-4.4-27.4s-6-13.1-9.9-17.1c-4-4-9.5-6.7-16.7-8.7
		c-7.1-2-13.1-3.2-17.9-3.6s-11.9-0.4-21.8-0.4v-19.1L4070.8,121.5z"/>
</g>
<g class="st2">
	<path class="st1" d="M4354.4,130.7h15.4V265h-15.4v-61.5H4274V265h-15.4V130.7h15.4v59.4h80.4V130.7z"/>
	<path class="st1" d="M4464.8,179c5.8,6,8.7,15.2,8.7,27.5V265h-15v-15.8c-2.4,5.5-6.1,9.7-11,12.7c-5,3-10.7,4.5-17.1,4.5
		c-6,0-11.5-1.2-16.5-3.6c-5-2.4-9-5.8-11.9-10.1c-2.9-4.3-4.4-9.1-4.4-14.3c0-7,1.8-12.4,5.3-16.3c3.6-3.9,9.4-6.7,17.5-8.4
		c8.1-1.7,19.4-2.6,33.9-2.6h4.2v-6.3c0-7.7-1.6-13.4-4.8-16.9c-3.2-3.5-8.3-5.2-15.4-5.2c-10.7,0-21.3,3.3-31.8,9.9l-5.1-11.2
		c4.8-3.4,10.6-6.2,17.4-8.3c6.8-2.1,13.4-3.1,19.7-3.1C4450.2,169.9,4459,172.9,4464.8,179z M4451.1,246.4
		c4.9-5.1,7.3-11.8,7.3-19.9V221h-3.4c-11.2,0-19.7,0.5-25.5,1.4c-5.8,1-10,2.5-12.5,4.8c-2.5,2.2-3.7,5.5-3.7,9.8
		c0,5,1.8,9,5.4,12.3c3.6,3.2,8.2,4.9,13.6,4.9C4439.9,254.1,4446.2,251.5,4451.1,246.4z"/>
	<path class="st1" d="M4554.2,183.3l-10.1,1c-9.5,0.9-16.4,3.9-20.7,9c-4.3,5.1-6.4,11.4-6.4,18.9v53h-15.4v-92.8h15v16.2
		c5.2-10.8,15.4-16.8,30.7-18.1l5.5-0.4L4554.2,183.3z"/>
	<path class="st1" d="M4637.1,175.8c6.2,3.9,11,9.5,14.5,16.8c3.4,7.2,5.1,15.6,5.1,25.1c0,9.7-1.7,18.1-5.1,25.4
		c-3.4,7.3-8.3,13-14.5,17c-6.2,4.1-13.4,6.1-21.5,6.1c-7.2,0-13.6-1.6-19-4.8c-5.4-3.2-9.5-7.7-12.3-13.5v17h-15.4V130.7h15.4v57.5
		c2.8-5.8,6.9-10.3,12.3-13.5c5.4-3.2,11.7-4.8,19-4.8C4623.7,169.9,4630.9,171.9,4637.1,175.8z M4633.5,244.1
		c5-6.3,7.4-15.1,7.4-26.4c0-11-2.5-19.6-7.4-25.7c-5-6.1-11.9-9.1-21-9.1c-9,0-16,3-20.9,9.1c-4.9,6.1-7.3,14.8-7.3,26.1
		c0,11.3,2.4,20,7.3,26.2c4.9,6.2,11.8,9.2,20.9,9.2C4621.6,253.5,4628.5,250.4,4633.5,244.1z"/>
	<path class="st1" d="M4695.1,260.4c-6.7-3.9-11.8-9.6-15.4-16.9c-3.6-7.3-5.4-15.8-5.4-25.4c0-9.7,1.8-18.1,5.4-25.4
		c3.6-7.3,8.8-12.9,15.4-16.9c6.7-3.9,14.4-5.9,23.1-5.9s16.5,2,23.2,5.9c6.7,3.9,11.9,9.6,15.5,16.9c3.6,7.3,5.4,15.8,5.4,25.4
		c0,9.7-1.8,18.1-5.4,25.4c-3.6,7.3-8.8,12.9-15.5,16.9c-6.7,3.9-14.5,5.9-23.2,5.9S4701.8,264.3,4695.1,260.4z M4739.3,244.5
		c4.9-6,7.3-14.8,7.3-26.4c0-11.3-2.5-20-7.4-26.2c-5-6.2-11.9-9.2-21-9.2c-9,0-16,3.1-21,9.2c-5,6.2-7.4,14.9-7.4,26.2
		c0,11.4,2.4,20.2,7.3,26.3c4.9,6.1,11.9,9.1,21.1,9.1C4727.4,253.5,4734.4,250.5,4739.3,244.5z"/>
	<path class="st1" d="M4838.1,183.3l-10.1,1c-9.5,0.9-16.4,3.9-20.7,9c-4.3,5.1-6.4,11.4-6.4,18.9v53h-15.4v-92.8h15v16.2
		c5.2-10.8,15.4-16.8,30.7-18.1l5.5-0.4L4838.1,183.3z"/>
	<path class="st1" d="M4372.7,330.7h12.8V465h-14.3l0.2-104l-43.6,82.7h-11l-43.8-81.9l0.2,103.3h-14.5V330.7h13l50.9,97.3
		L4372.7,330.7z"/>
	<path class="st1" d="M4480.6,379c5.8,6,8.7,15.2,8.7,27.5V465h-15v-15.8c-2.4,5.5-6.1,9.7-11,12.7c-5,3-10.7,4.5-17.1,4.5
		c-6,0-11.5-1.2-16.5-3.6c-5-2.4-9-5.8-11.9-10.1c-2.9-4.3-4.4-9.1-4.4-14.3c0-7,1.8-12.4,5.3-16.3c3.6-3.9,9.4-6.7,17.5-8.4
		c8.1-1.7,19.4-2.6,33.9-2.6h4.2v-6.3c0-7.7-1.6-13.4-4.8-16.9c-3.2-3.5-8.3-5.2-15.4-5.2c-10.7,0-21.3,3.3-31.8,9.9l-5.1-11.2
		c4.8-3.4,10.6-6.2,17.4-8.3c6.8-2.1,13.4-3.1,19.7-3.1C4466,369.9,4474.8,372.9,4480.6,379z M4466.9,446.4
		c4.9-5.1,7.3-11.8,7.3-19.9V421h-3.4c-11.2,0-19.7,0.5-25.5,1.4c-5.8,1-10,2.5-12.5,4.8c-2.5,2.2-3.7,5.5-3.7,9.8
		c0,5,1.8,9,5.4,12.3c3.6,3.2,8.2,4.9,13.6,4.9C4455.8,454.1,4462,451.5,4466.9,446.4z"/>
	<path class="st1" d="M4597.5,406.7V465h-15.4v-57.3c0-8.6-1.7-14.9-5-18.9c-3.4-3.9-8.7-5.9-16.1-5.9c-8.5,0-15.3,2.6-20.4,7.8
		c-5.1,5.2-7.6,12.3-7.6,21.1V465h-15.4v-92.8h15.2v15.2c3-5.7,7.3-10.1,12.8-13c5.5-3,11.7-4.5,18.7-4.5
		C4586.4,369.9,4597.5,382.2,4597.5,406.7z"/>
	<path class="st1" d="M4689.8,379c5.8,6,8.7,15.2,8.7,27.5V465h-15v-15.8c-2.4,5.5-6.1,9.7-11,12.7c-5,3-10.7,4.5-17.1,4.5
		c-6,0-11.5-1.2-16.5-3.6c-5-2.4-9-5.8-11.9-10.1c-2.9-4.3-4.4-9.1-4.4-14.3c0-7,1.8-12.4,5.3-16.3c3.6-3.9,9.4-6.7,17.5-8.4
		c8.1-1.7,19.4-2.6,33.9-2.6h4.2v-6.3c0-7.7-1.6-13.4-4.8-16.9c-3.2-3.5-8.3-5.2-15.4-5.2c-10.7,0-21.3,3.3-31.8,9.9l-5.1-11.2
		c4.8-3.4,10.6-6.2,17.4-8.3c6.8-2.1,13.4-3.1,19.7-3.1C4675.2,369.9,4684,372.9,4689.8,379z M4676.1,446.4
		c4.9-5.1,7.3-11.8,7.3-19.9V421h-3.4c-11.2,0-19.7,0.5-25.5,1.4c-5.8,1-10,2.5-12.5,4.8c-2.5,2.2-3.7,5.5-3.7,9.8
		c0,5,1.8,9,5.4,12.3c3.6,3.2,8.2,4.9,13.6,4.9C4664.9,454.1,4671.2,451.5,4676.1,446.4z"/>
	<path class="st1" d="M4809.7,372.2v86.5c0,13.8-3.6,24.3-10.7,31.3c-7.1,7-17.7,10.6-31.6,10.6c-16.3,0-29.9-4.2-41-12.6l5.1-11.4
		c6.2,4.1,12.1,7,17.5,8.8c5.5,1.8,11.6,2.7,18.3,2.7c8.9,0,15.6-2.4,20.2-7.1c4.6-4.8,6.9-11.7,6.9-20.9v-16.4
		c-2.7,6-6.8,10.5-12.3,13.7c-5.5,3.2-12,4.8-19.5,4.8c-8.1,0-15.3-1.9-21.6-5.7c-6.3-3.8-11.2-9.2-14.7-16.2
		c-3.5-7-5.2-15-5.2-24.2c0-9.1,1.7-17.2,5.2-24.2c3.5-7,8.4-12.4,14.7-16.2c6.3-3.8,13.5-5.7,21.6-5.7c7.4,0,13.8,1.6,19.2,4.8
		c5.5,3.2,9.6,7.7,12.4,13.5v-16H4809.7z M4786.7,440.5c5.1-5.9,7.6-14.1,7.6-24.5c0-10.3-2.5-18.4-7.5-24.3c-5-5.9-12-8.9-21.1-8.9
		c-9,0-16.1,3-21.2,8.9c-5.1,5.9-7.7,14-7.7,24.3c0,10.4,2.6,18.6,7.7,24.5s12.2,8.9,21.2,8.9
		C4774.6,449.4,4781.6,446.4,4786.7,440.5z"/>
	<path class="st1" d="M4916,421h-67.8c0.5,10.8,3.4,19,8.8,24.5s12.9,8.3,22.7,8.3c10.8,0,20.7-3.7,29.7-11l5.1,11.2
		c-4.1,3.8-9.3,6.8-15.6,9c-6.4,2.2-12.8,3.3-19.4,3.3c-14.5,0-25.9-4.3-34.2-12.8c-8.3-8.5-12.5-20.3-12.5-35.2
		c0-9.5,1.8-17.9,5.5-25.2c3.7-7.3,8.9-13,15.5-17c6.7-4.1,14.3-6.1,22.8-6.1c12.3,0,22,4,29,12.1c7,8.1,10.5,19.1,10.5,33.2V421z
		 M4857.2,389.5c-4.9,5.1-7.8,12.3-8.7,21.5h53.9c-0.3-9.4-2.6-16.6-7-21.6c-4.4-5-10.7-7.5-18.7-7.5
		C4868.6,381.9,4862.1,384.5,4857.2,389.5z"/>
	<path class="st1" d="M5072.8,406.7V465h-15.4v-57.5c0-8.5-1.5-14.7-4.5-18.7c-3-3.9-7.8-5.9-14.4-5.9c-7.7,0-13.8,2.6-18.3,7.8
		c-4.4,5.2-6.7,12.3-6.7,21.3v53h-15.4v-57.5c0-8.6-1.5-14.9-4.6-18.8c-3-3.9-7.9-5.8-14.5-5.8c-7.7,0-13.8,2.6-18.3,7.8
		c-4.4,5.2-6.7,12.3-6.7,21.3v53h-15.4v-92.8h15.2v14.7c2.8-5.5,6.7-9.6,11.6-12.6c5-2.9,10.7-4.4,17.1-4.4
		c14.3,0,23.8,6.1,28.4,18.3c2.7-5.7,6.7-10.2,12.2-13.4c5.5-3.2,11.7-4.9,18.7-4.9C5062.5,369.9,5072.8,382.2,5072.8,406.7z"/>
	<path class="st1" d="M5178.7,421h-67.8c0.5,10.8,3.4,19,8.8,24.5s12.9,8.3,22.7,8.3c10.8,0,20.7-3.7,29.7-11l5.1,11.2
		c-4.1,3.8-9.3,6.8-15.6,9c-6.4,2.2-12.8,3.3-19.4,3.3c-14.5,0-25.9-4.3-34.2-12.8c-8.3-8.5-12.5-20.3-12.5-35.2
		c0-9.5,1.8-17.9,5.5-25.2c3.7-7.3,8.9-13,15.5-17c6.7-4.1,14.3-6.1,22.8-6.1c12.3,0,22,4,29,12.1c7,8.1,10.5,19.1,10.5,33.2V421z
		 M5119.9,389.5c-4.9,5.1-7.8,12.3-8.7,21.5h53.9c-0.3-9.4-2.6-16.6-7-21.6c-4.4-5-10.7-7.5-18.7-7.5
		C5131.3,381.9,5124.8,384.5,5119.9,389.5z"/>
	<path class="st1" d="M5281.4,406.7V465h-15.4v-57.3c0-8.6-1.7-14.9-5-18.9c-3.4-3.9-8.7-5.9-16.1-5.9c-8.5,0-15.3,2.6-20.4,7.8
		c-5.1,5.2-7.6,12.3-7.6,21.1V465h-15.4v-92.8h15.2v15.2c3-5.7,7.3-10.1,12.8-13c5.5-3,11.7-4.5,18.7-4.5
		C5270.3,369.9,5281.4,382.2,5281.4,406.7z"/>
	<path class="st1" d="M5358.7,453.4l-0.8,12.2c-2.9,0.5-6.1,0.8-9.5,0.8c-11.2,0-19.6-2.9-25.2-8.8c-5.7-5.8-8.5-14-8.5-24.4v-48.8
		h-18.1v-12.2h18.1V344h15.4v28.2h26.3v12.2h-26.3V432c0,14.6,6.7,21.9,20.2,21.9C5353.1,453.9,5355.9,453.7,5358.7,453.4z"/>
	<path class="st1" d="M4251,649.5l6.1-12c6.6,5.6,13.4,9.6,20.3,12c6.9,2.4,15,3.6,24.1,3.6c10.8,0,19.1-2.1,25-6.3
		c5.8-4.2,8.8-10.1,8.8-17.7c0-4.4-1.4-8.1-4.2-10.9c-2.8-2.8-6.5-5-11-6.7c-4.6-1.6-10.7-3.4-18.5-5.1c-10.4-2.4-19-5-25.6-7.6
		c-6.7-2.7-12.1-6.5-16.2-11.4c-4.1-5-6.2-11.4-6.2-19.4c0-7.6,2-14.4,6-20.3c4-5.9,9.7-10.5,17.1-13.7c7.4-3.2,16-4.9,25.8-4.9
		c9.3,0,17.9,1.5,26,4.4c8.1,2.9,14.9,7.1,20.5,12.6l-5.9,12c-6.4-5.5-12.8-9.4-19.3-11.9c-6.5-2.5-13.6-3.7-21.2-3.7
		c-10.4,0-18.6,2.2-24.5,6.6c-5.9,4.4-8.9,10.5-8.9,18.4c0,6.7,2.6,11.8,7.8,15.2c5.2,3.4,13.1,6.4,23.6,8.8
		c11.6,2.8,20.6,5.4,27.2,7.7c6.6,2.4,12.1,5.9,16.5,10.6c4.4,4.7,6.6,11,6.6,18.9c0,7.6-2,14.3-6,20c-4,5.7-9.7,10.1-17.2,13.2
		c-7.5,3.1-16.3,4.7-26.3,4.7C4280.3,666.5,4263.5,660.9,4251,649.5z"/>
	<path class="st1" d="M4439.2,572.4h15.4l-54.9,126.9h-15.8l15.6-35.4l-39.2-91.4h16.4l31.1,75.8L4439.2,572.4z"/>
	<path class="st1" d="M4463.2,654.3l5.1-11.4c5,3.9,10,6.8,15.1,8.5c5.1,1.7,11,2.6,17.4,2.6c6.9,0,12.1-1.2,15.7-3.5
		c3.6-2.3,5.4-5.7,5.4-10.2c0-3.7-1.2-6.6-3.6-8.8c-2.4-2.2-6.4-3.9-12-5.1l-15.6-3.6c-7.9-1.8-13.9-4.8-18.1-9.1
		c-4.2-4.3-6.3-9.7-6.3-16c0-8.3,3.2-14.9,9.7-20c6.5-5.1,15.1-7.6,25.9-7.6c6.5,0,12.6,1,18.5,3.1c5.8,2.1,10.7,5.1,14.7,9
		l-5.1,11.2c-8.5-7.2-17.8-10.9-28-10.9c-6.5,0-11.5,1.2-15.1,3.7c-3.6,2.5-5.4,5.9-5.4,10.4c0,3.7,1.1,6.6,3.3,8.9
		c2.2,2.2,5.8,3.9,10.8,5l15.8,3.8c8.6,2,15,5.1,19.2,9.2c4.2,4.1,6.3,9.5,6.3,16.1c0,8.1-3.3,14.6-9.8,19.4
		c-6.5,4.8-15.5,7.2-26.8,7.2C4484.7,666.3,4472.3,662.3,4463.2,654.3z"/>
	<path class="st1" d="M4608.5,653.4l-0.8,12.2c-2.9,0.5-6.1,0.8-9.5,0.8c-11.2,0-19.6-2.9-25.2-8.8c-5.7-5.8-8.5-14-8.5-24.4v-48.8
		h-18.1v-12.2h18.1V544h15.4v28.2h26.3v12.2H4580V632c0,14.6,6.7,21.9,20.2,21.9C4603,653.9,4605.7,653.7,4608.5,653.4z"/>
	<path class="st1" d="M4701.9,621h-67.8c0.5,10.8,3.4,19,8.8,24.5s12.9,8.3,22.7,8.3c10.8,0,20.7-3.7,29.7-11l5.1,11.2
		c-4.1,3.8-9.3,6.8-15.6,9c-6.4,2.2-12.8,3.3-19.4,3.3c-14.5,0-25.9-4.3-34.2-12.8c-8.3-8.5-12.5-20.3-12.5-35.2
		c0-9.5,1.8-17.9,5.5-25.2c3.7-7.3,8.9-13,15.5-17c6.7-4.1,14.3-6.1,22.8-6.1c12.3,0,22,4,29,12.1c7,8.1,10.5,19.1,10.5,33.2V621z
		 M4643.1,589.5c-4.9,5.1-7.8,12.3-8.7,21.5h53.9c-0.3-9.4-2.6-16.6-7-21.6c-4.4-5-10.7-7.5-18.7-7.5
		C4654.5,581.9,4648,584.5,4643.1,589.5z"/>
	<path class="st1" d="M4858.7,606.7V665h-15.4v-57.5c0-8.5-1.5-14.7-4.5-18.7c-3-3.9-7.8-5.9-14.4-5.9c-7.7,0-13.8,2.6-18.3,7.8
		c-4.4,5.2-6.7,12.3-6.7,21.3v53H4784v-57.5c0-8.6-1.5-14.9-4.6-18.8c-3-3.9-7.9-5.8-14.5-5.8c-7.7,0-13.8,2.6-18.3,7.8
		c-4.4,5.2-6.7,12.3-6.7,21.3v53h-15.4v-92.8h15.2v14.7c2.8-5.5,6.7-9.6,11.6-12.6c5-2.9,10.7-4.4,17.1-4.4
		c14.3,0,23.8,6.1,28.4,18.3c2.7-5.7,6.7-10.2,12.2-13.4c5.5-3.2,11.7-4.9,18.7-4.9C4848.4,569.9,4858.7,582.2,4858.7,606.7z"/>
</g>
</svg>
